<svg xmlns="http://www.w3.org/2000/svg" viewBox="0 0 110 132.425" x="0px" y="0px"><g data-name="Layer 2"><g data-name="Layer 1"><path d="M107,53h-7V42.94a15,15,0,0,0-15-15H58v-8.4a10,10,0,1,0-6,0v8.4H25a15,15,0,0,0-15,15v10H3a3,3,0,0,0-3,3v22a3,3,0,0,0,3,3h7v10a15,15,0,0,0,15,15H85a15,15,0,0,0,15-15V81h7a3,3,0,0,0,3-3V56A3,3,0,0,0,107,53ZM10,74.94H6v-16h4ZM51,10a4,4,0,1,1,4,4A4,4,0,0,1,51,10ZM94,90.94a9,9,0,0,1-9,9H25a9,9,0,0,1-9-9v-48a9,9,0,0,1,9-9H85a9,9,0,0,1,9,9ZM104,75h-4V59h4ZM44,57A10,10,0,1,0,34,67,10,10,0,0,0,44,57ZM30,57a4,4,0,1,1,4,4A4,4,0,0,1,30,57ZM76,47A10,10,0,1,0,86,57,10,10,0,0,0,76,47Zm0,14a4,4,0,1,1,4-4A4,4,0,0,1,76,61ZM73,73H37a3,3,0,0,0-3,3V86a3,3,0,0,0,3,3H73a3,3,0,0,0,3-3V76A3,3,0,0,0,73,73ZM70,83H40V79H70Z"/></g></g></svg>
