<?xml version="1.0" encoding="UTF-8"?>
<svg width="1200pt" height="1200pt" version="1.1" viewBox="0 0 1200 1200" xmlns="http://www.w3.org/2000/svg">
 <path transform="matrix(12.759 0 0 12.759 781.47 -186.33)" d="m29.225 61.39c0 11.815-4.6938 23.147-13.049 31.502-8.355 8.355-19.687 13.049-31.502 13.049-11.816 0-23.147-4.6935-31.502-13.049-8.3547-8.3547-13.049-19.686-13.049-31.502 0-11.816 4.6938-23.147 13.049-31.502 8.355-8.3547 19.686-13.049 31.502-13.049 11.815 0 23.147 4.6938 31.502 13.049 8.3547 8.3547 13.049 19.686 13.049 31.502z" fill="none" stroke="#000" stroke-width="2.8214"/>
 <path d="m250.91 969.05c134.64 162.47 499.82 167.9 632.97 8.5547 15.047-57.199-155.62-176.25-213.84-287.97-1.9766-15.227 7.1367-26.777 18.531-37.066 20.543-18.543 61.492-6.2891 81.262-25.66 9.2344-9.0469 12.785-27.703 8.5547-39.918-4.918-14.199-24.129-15.566-28.512-29.938 1.7031-19.602 9.918-35.316 17.105-61.301 11.652-10.863 37.457-0.66016 42.77-15.684 0.023437-33.73-25.719-52.312-38.492-84.109-14.766-34.605 1.2227-88.293-38.492-128.3 6.0508-19.23 44.02-21.359 41.344-41.344-7.1211-53.164-85.34-72.668-138.29-81.262-52.621-8.5391-103.82-0.37109-151.11 24.234-51.285 26.684-95.895 52.035-128.3 136.86-2.7266 94.574-0.26172 132.89 31.363 189.61 11.508 30.328 36.793 70.25 51.32 82.688 1.7148 32.688-26.523 59.973-42.77 88.387-59.949 68.406-164.81 236.97-145.41 302.23z"/>
</svg>
