<?xml version="1.0" encoding="UTF-8"?>
<svg width="1200pt" height="1200pt" version="1.1" viewBox="0 0 1200 1200" xmlns="http://www.w3.org/2000/svg">
 <path transform="matrix(12.759 0 0 12.759 798.39 -183.48)" d="m29.225 61.39c0 11.815-4.6938 23.147-13.049 31.502-8.355 8.355-19.687 13.049-31.502 13.049-11.816 0-23.147-4.6935-31.502-13.049-8.3547-8.3547-13.049-19.686-13.049-31.502 0-11.816 4.6938-23.147 13.049-31.502 8.355-8.3547 19.686-13.049 31.502-13.049 11.815 0 23.147 4.6938 31.502 13.049 8.3547 8.3547 13.049 19.686 13.049 31.502z" fill="none" stroke="#000" stroke-width="2.8214"/>
 <path d="m302.85 362.85v12h12v48h-72v24h12v48h12v156h-12v12h-12v12h-12v12h-36v36h-48v48h912v-48h-48v-36h-36v-12h-12v-12h-12v-12h-12v-156h12v-48h12v-24h-72v-60zm0 132c6.6289 0 12 5.3711 12 12v144h-24v-144c0-6.6289 5.3711-12 12-12zm66.75 0c6.6289 0 12 5.3711 12 12v144h-24v-144c0-6.6289 5.3711-12 12-12zm66.75 0c6.6289 0 12 5.3711 12 12v144h-24v-144c0-6.6289 5.3711-12 12-12zm66.375 0c6.6289 0 12 5.3711 12 12v144h-24v-144c0-6.6289 5.3711-12 12-12zm66.75 0c6.6289 0 12 5.3711 12 12v144h-24v-144c0-6.6289 5.3711-12 12-12zm66.75 0c6.6289 0 12 5.3711 12 12v144h-24v-144c0-6.6289 5.3711-12 12-12zm66.75 0c6.6289 0 12 5.3711 12 12v144h-24v-144c0-6.6289 5.3711-12 12-12zm66.375 0c6.6289 0 12 5.3711 12 12v144h-24v-144c0-6.6289 5.3711-12 12-12zm66.75 0c6.6289 0 12 5.3711 12 12v144h-24v-144c0-6.6289 5.3711-12 12-12zm66.75 0c6.6289 0 12 5.3711 12 12v144h-24v-144c0-6.6289 5.3711-12 12-12z"/>
</svg>
